<svg xmlns="http://www.w3.org/2000/svg" xmlns:xlink="http://www.w3.org/1999/xlink" width="87" height="65" viewBox="0 0 87 65"><defs><style>.a{fill:none;}.b{clip-path:url(#a);}.c{fill:#f7f7f7;}.c,.d{stroke:#707070;}.d{fill:#fff;}.e{stroke:none;}</style><clipPath id="a"><rect class="a" width="87" height="65"/></clipPath></defs><g transform="translate(-1496 -331)"><g class="b" transform="translate(1496 331)"><g transform="translate(-1407 -203)"><g class="c" transform="translate(1407 203)"><rect class="e" width="29" height="20"/><rect class="a" x="0.5" y="0.5" width="28" height="19"/></g></g><g transform="translate(-1376 -203)"><g class="c" transform="translate(1407 203)"><rect class="e" width="29" height="20"/><rect class="a" x="0.5" y="0.5" width="28" height="19"/></g></g><g transform="translate(-1345 -203)"><g class="c" transform="translate(1407 203)"><rect class="e" width="29" height="20"/><rect class="a" x="0.5" y="0.5" width="28" height="19"/></g></g><g transform="translate(-1407 -180)"><g class="c" transform="translate(1407 203)"><rect class="e" width="29" height="20"/><rect class="a" x="0.5" y="0.5" width="28" height="19"/></g></g><g transform="translate(-1376 -180)"><g class="c" transform="translate(1407 203)"><rect class="e" width="29" height="20"/><rect class="a" x="0.5" y="0.5" width="28" height="19"/></g></g><g transform="translate(-1345 -180)"><g class="c" transform="translate(1407 203)"><rect class="e" width="29" height="20"/><rect class="a" x="0.5" y="0.5" width="28" height="19"/></g></g><g transform="translate(-1407 -157)"><g class="c" transform="translate(1407 203)"><rect class="e" width="29" height="20"/><rect class="a" x="0.5" y="0.5" width="28" height="19"/></g></g><g transform="translate(-1376 -157)"><g class="c" transform="translate(1407 203)"><rect class="e" width="29" height="20"/><rect class="a" x="0.5" y="0.5" width="28" height="19"/></g></g><g transform="translate(-1345 -157)"><g class="c" transform="translate(1407 203)"><rect class="e" width="29" height="20"/><rect class="a" x="0.5" y="0.5" width="28" height="19"/></g></g></g><g class="d" transform="translate(1525 348)"><rect class="e" width="1" height="1"/><rect class="a" x="0.5" y="0.5"/></g></g></svg>