<svg xmlns="http://www.w3.org/2000/svg" xmlns:xlink="http://www.w3.org/1999/xlink" width="102" height="69" viewBox="0 0 102 69"><defs><style>.a{fill:none;}.b{clip-path:url(#a);}.c{clip-path:url(#b);}.d,.f{fill:#f7f7f7;}.d{stroke:#707070;}.e{clip-path:url(#c);}.g,.h{stroke:none;}.h{fill:#707070;}</style><clipPath id="a"><rect class="a" width="102" height="69"/></clipPath><clipPath id="b"><rect class="a" width="29" height="65"/></clipPath><clipPath id="c"><rect class="a" width="70" height="71"/></clipPath></defs><g class="b"><g transform="translate(-1496 -330)"><g class="c" transform="translate(1496 331)"><g transform="translate(-1407 -203)"><g class="d" transform="translate(1407 203)"><rect class="g" width="29" height="20"/><rect class="a" x="0.5" y="0.5" width="28" height="19"/></g></g><g transform="translate(-1407 -180)"><g class="d" transform="translate(1407 203)"><rect class="g" width="29" height="20"/><rect class="a" x="0.5" y="0.5" width="28" height="19"/></g></g><g transform="translate(-1407 -157)"><g class="d" transform="translate(1407 203)"><rect class="g" width="29" height="20"/><rect class="a" x="0.5" y="0.5" width="28" height="19"/></g></g></g><g class="e" transform="translate(1528 330)"><g transform="translate(-1578 -194)"><g class="f" transform="translate(1578 194)"><path class="g" d="M 68.66666412353516 19.5 L 0.5000020861625671 19.5 L 0.5000020861625671 0.5 L 68.66666412353516 0.5 L 68.66666412353516 19.5 Z"/><path class="h" d="M 1 1 L 1 19 L 68.16666412353516 19 L 68.16666412353516 1 L 1 1 M 0 0 L 69.16666412353516 0 L 69.16666412353516 20 L 0 20 L 0 0 Z"/></g></g><g transform="translate(-1578 -171)"><g class="f" transform="translate(1578 194)"><path class="g" d="M 68.66666412353516 19.5 L 0.5000020861625671 19.5 L 0.5000020861625671 0.5 L 68.66666412353516 0.5 L 68.66666412353516 19.5 Z"/><path class="h" d="M 1 1 L 1 19 L 68.16666412353516 19 L 68.16666412353516 1 L 1 1 M 0 0 L 69.16666412353516 0 L 69.16666412353516 20 L 0 20 L 0 0 Z"/></g></g><g transform="translate(-1578 -148)"><g class="f" transform="translate(1578 194)"><path class="g" d="M 68.66666412353516 19.5 L 0.5000020861625671 19.5 L 0.5000020861625671 0.5 L 68.66666412353516 0.5 L 68.66666412353516 19.5 Z"/><path class="h" d="M 1 1 L 1 19 L 68.16666412353516 19 L 68.16666412353516 1 L 1 1 M 0 0 L 69.16666412353516 0 L 69.16666412353516 20 L 0 20 L 0 0 Z"/></g></g><g transform="translate(-1578 -125)"><g class="f" transform="translate(1578 194)"><path class="g" d="M 68.66666412353516 19.5 L 0.5000020861625671 19.5 L 0.5000020861625671 0.5 L 68.66666412353516 0.5 L 68.66666412353516 19.5 Z"/><path class="h" d="M 1 1 L 1 19 L 68.16666412353516 19 L 68.16666412353516 1 L 1 1 M 0 0 L 69.16666412353516 0 L 69.16666412353516 20 L 0 20 L 0 0 Z"/></g></g></g></g></g></svg>